PathFileType	4	(X/Y/Z)	Static 1_gm.trc
DataRate	CameraRate	NumFrames	NumMarkers	Units	OrigDataRate	OrigDataStartFrame	OrigNumFrames
150	150	4	82	mm	150	331	529
Frame#	Time	P1			P2			P3			ST1			ST2			ST3			LACR1			LACR2			LACR3			LUA1			LUA2			LUA3			LUA4			LLA1			LLA2			LLA3			LLA4			LH1			LH2			LH3			RACR1			RACR2			RACR3			RUA1			RUA2			RUA3			RUA4			RLA1			RLA2			RLA3			RLA4			RH1			RH2			RH3			REL			REM			RRS			RUS			RMC3			RMCP2			RMCP3			RMCP5			RAA			RAI			RTS			RPC			RAC			RGH			C7			T8			IJ			PX			RElevationplaneH2			RShoulderElevationH2			RShoulderRotationH2			RElevationplaneH1			RShoulderElevationH1			RShoulderRotationH1			RElbowFlExt			RElbowProSupination			RWristFlExt			RWristDeviation			RScapProRetraction			RScapRotation			RScapTilting			RTrunkFlExt			RTrunkLateralFl			RTrunkAxialRotation			RH2SAG_Flexion			RH2SAG_Abduction			RH2SAG_Rotation			RH2FRONT_Abduction			RH2FRONT_Flexion			RH2FRONT_Rotation			RH1SAG_Flexion			RH1SAG_Abduction			RH1SAG_Rotation			RH1FRONT_Abduction			RH1FRONT_Flexion			RH1FRONT_Rotation			REB			HWM		
		X1	Y1	Z1	X2	Y2	Z2	X3	Y3	Z3	X4	Y4	Z4	X5	Y5	Z5	X6	Y6	Z6	X7	Y7	Z7	X8	Y8	Z8	X9	Y9	Z9	X10	Y10	Z10	X11	Y11	Z11	X12	Y12	Z12	X13	Y13	Z13	X14	Y14	Z14	X15	Y15	Z15	X16	Y16	Z16	X17	Y17	Z17	X18	Y18	Z18	X19	Y19	Z19	X20	Y20	Z20	X21	Y21	Z21	X22	Y22	Z22	X23	Y23	Z23	X24	Y24	Z24	X25	Y25	Z25	X26	Y26	Z26	X27	Y27	Z27	X28	Y28	Z28	X29	Y29	Z29	X30	Y30	Z30	X31	Y31	Z31	X32	Y32	Z32	X33	Y33	Z33	X34	Y34	Z34	X35	Y35	Z35	X36	Y36	Z36	X37	Y37	Z37	X38	Y38	Z38	X39	Y39	Z39	X40	Y40	Z40	X41	Y41	Z41	X42	Y42	Z42	X43	Y43	Z43	X44	Y44	Z44	X45	Y45	Z45	X46	Y46	Z46	X47	Y47	Z47	X48	Y48	Z48	X49	Y49	Z49	X50	Y50	Z50	X51	Y51	Z51	X52	Y52	Z52	X53	Y53	Z53	X54	Y54	Z54	X55	Y55	Z55	X56	Y56	Z56	X57	Y57	Z57	X58	Y58	Z58	X59	Y59	Z59	X60	Y60	Z60	X61	Y61	Z61	X62	Y62	Z62	X63	Y63	Z63	X64	Y64	Z64	X65	Y65	Z65	X66	Y66	Z66	X67	Y67	Z67	X68	Y68	Z68	X69	Y69	Z69	X70	Y70	Z70	X71	Y71	Z71	X72	Y72	Z72	X73	Y73	Z73	X74	Y74	Z74	X75	Y75	Z75	X76	Y76	Z76	X77	Y77	Z77	X78	Y78	Z78	X79	Y79	Z79	X80	Y80	Z80	X81	Y81	Z81	X82	Y82	Z82
	
331	2.200000	352.234406	1630.315796	-749.962036	262.064178	1698.818359	-730.184937	208.706207	1595.884888	-736.079468	326.947357	1167.468994	-27.560446	348.993134	1114.264160	4.862764	329.642059	1166.435791	28.544571	274.637909	1268.060303	-213.470963	184.077896	1229.959473	-149.940704	215.006958	1171.027832	-238.399933	229.784119	1076.321777	-215.961670	248.278397	1008.429626	-216.591888	286.868408	1026.561157	-196.387024	282.135284	1101.872803	-196.224533	445.787415	737.484741	-199.805298	515.524841	747.745850	-264.401611	548.047119	823.278076	-159.367981	458.252533	771.970032	-141.921494	530.545166	703.252136	-191.316544	580.088928	701.081726	-176.379013	543.597656	726.541260	-148.225128	287.487396	1256.307495	237.909393	241.391342	1159.237671	263.730835	204.882111	1218.003174	173.626770	307.257843	1067.237183	217.242249	317.091492	1006.157959	213.983368	263.144165	989.670715	233.213669	255.174011	1057.234375	233.972427	470.501465	779.325439	154.123596	566.003052	817.417664	154.616776	537.894653	738.780212	253.809677	458.577209	730.347473	195.832962	553.575684	728.240417	128.600311	591.451782	708.170288	153.771530	543.367371	698.353027	178.250076	330.324493	853.585205	228.772049	287.845520	838.647522	184.825577	521.043152	721.651367	122.406601	521.037903	715.870300	171.776917	559.726440	708.112122	150.826523	603.907837	704.449219	122.582451	607.150940	694.858521	149.651947	580.366516	668.771973	172.401199	189.737640	1160.626709	144.943695	157.022186	1036.741699	104.564987	174.900726	1176.538696	77.560776	292.281891	1155.641846	130.699753	267.009949	1187.675293	169.546906	265.603119	1144.201538	156.164719	196.398697	1253.438354	2.552119	151.882523	1097.460205	16.070242	300.827576	1176.408325	2.400405	353.512543	1009.425049	1.713439	0.000000	0.000000	41.004951	0.000000	0.000000	-9.958625	0.000000	0.000000	-19.652718	0.000000	0.000000	41.004951	0.000000	0.000000	-9.958625	0.000000	0.000000	1.060984	0.000000	0.000000	49.719055	0.000000	0.000000	138.841644	0.000000	0.000000	-16.584263	0.000000	0.000000	4.732356	0.000000	0.000000	10.358226	0.000000	0.000000	15.517380	0.000000	0.000000	-11.019242	0.000000	0.000000	0.178060	0.000000	0.000000	-0.238724	0.000000	0.000000	0.002680	0.000000	0.000000	6.571728	0.000000	0.000000	-7.498913	0.000000	0.000000	21.783377	0.000000	0.000000	-7.547941	0.000000	0.000000	6.515277	0.000000	0.000000	20.922001	0.000000	0.000000	6.571728	0.000000	0.000000	-7.498913	0.000000	0.000000	42.497078	0.000000	0.000000	-7.547941	0.000000	0.000000	6.515277	0.000000	0.000000	41.635704	309.085022	846.116333	206.798813	521.040527	718.760864	147.091766
332	2.206667	352.125702	1630.287231	-749.994263	261.969879	1698.764526	-730.236816	208.629181	1595.817505	-736.120911	326.959473	1167.460327	-27.545164	349.013062	1114.264648	4.865519	329.597168	1166.391602	28.597630	274.638275	1268.084595	-213.493484	183.865051	1230.153687	-150.104309	215.014328	1171.043091	-238.397690	229.808777	1076.324707	-215.970367	248.271423	1008.466614	-216.591141	286.875183	1026.552368	-196.366989	282.139252	1101.879883	-196.217590	445.811371	737.466125	-199.792053	515.552612	747.704224	-264.438263	548.055725	823.262146	-159.356323	458.236938	771.956909	-141.939331	530.560669	703.240112	-191.326782	580.093384	701.092041	-176.417603	543.601440	726.561218	-148.235275	287.489685	1256.317383	237.893555	241.403046	1159.213867	263.747192	204.869431	1218.000732	173.630341	307.259644	1067.207275	217.248352	317.063477	1006.158386	214.007019	263.131256	989.653931	233.202484	255.167374	1057.225830	233.979752	470.497406	779.337891	154.141846	566.011169	817.410767	154.619568	537.869873	738.750305	253.829590	458.588501	730.312561	195.801270	553.569702	728.212646	128.589905	591.460876	708.126099	153.829910	543.368286	698.358337	178.248810	330.284424	853.564087	228.772430	287.813538	838.637268	184.814453	521.053467	721.652954	122.400391	521.039795	715.860046	171.769318	559.728577	708.088745	150.842606	603.925537	704.397705	122.626572	607.150940	694.824158	149.704269	580.347656	668.758423	172.455215	189.723724	1160.614502	144.959137	157.009506	1036.725586	104.591187	174.869705	1176.523560	77.579285	292.265076	1155.638062	130.691391	266.999420	1187.670410	169.543625	265.593231	1144.196167	156.162872	196.303284	1253.299438	2.523671	151.909561	1097.271484	15.868002	300.799347	1176.360474	2.412233	353.630402	1009.423828	1.639317	0.000000	0.000000	40.669979	0.000000	0.000000	-9.956131	0.000000	0.000000	-19.258615	0.000000	0.000000	40.669979	0.000000	0.000000	-9.956131	0.000000	0.000000	1.449174	0.000000	0.000000	49.731098	0.000000	0.000000	138.839035	0.000000	0.000000	-16.572710	0.000000	0.000000	4.771331	0.000000	0.000000	10.417504	0.000000	0.000000	15.480189	0.000000	0.000000	-11.072295	0.000000	0.000000	0.225821	0.000000	0.000000	-0.188634	0.000000	0.000000	-0.054276	0.000000	0.000000	6.526155	0.000000	0.000000	-7.535243	0.000000	0.000000	21.841589	0.000000	0.000000	-7.583819	0.000000	0.000000	6.469556	0.000000	0.000000	20.982121	0.000000	0.000000	6.526155	0.000000	0.000000	-7.535243	0.000000	0.000000	42.549377	0.000000	0.000000	-7.583819	0.000000	0.000000	6.469556	0.000000	0.000000	41.689911	309.048981	846.100708	206.793442	521.046631	718.756470	147.084854
333	2.213333	352.032532	1630.252563	-750.018250	261.850647	1698.723022	-730.290466	208.519928	1595.784790	-736.134033	326.974792	1167.485962	-27.526154	349.010040	1114.265991	4.872003	329.629730	1166.413696	28.578279	274.628448	1268.074829	-213.504211	183.854446	1230.170166	-150.105408	215.028336	1171.088013	-238.386398	229.793213	1076.343262	-215.964539	248.274170	1008.453552	-216.578964	286.872589	1026.540283	-196.325760	282.138611	1101.888550	-196.201889	445.780518	737.495178	-199.763580	515.551147	747.730652	-264.417877	548.031860	823.270691	-159.370453	458.229889	771.939697	-141.920578	530.547058	703.253113	-191.318024	580.081482	701.059692	-176.409866	543.606201	726.561035	-148.226212	287.491821	1256.286011	237.914581	241.393219	1159.247192	263.731689	204.872131	1217.983154	173.661423	307.255615	1067.208008	217.242264	317.046631	1006.137512	213.990219	263.118591	989.655151	233.218750	255.150070	1057.205811	233.998932	470.497925	779.318787	154.128128	565.985962	817.433655	154.606628	537.892761	738.801880	253.803619	458.571899	730.330872	195.834106	553.553467	728.226135	128.595367	591.439697	708.093079	153.770889	543.366516	698.359924	178.242004	330.262909	853.551514	228.749207	287.769867	838.628479	184.811356	521.046204	721.652161	122.407753	521.043091	715.875427	171.778580	559.708801	708.087646	150.823914	603.870728	704.364929	122.557220	607.115540	694.772644	149.625977	580.309265	668.722961	172.391693	189.712448	1160.616821	144.973175	156.975922	1036.732666	104.608917	174.860748	1176.526611	77.592987	292.252808	1155.621826	130.704773	266.993164	1187.659668	169.556305	265.579132	1144.185303	156.176773	196.382553	1253.401489	2.555707	151.896484	1097.402344	15.928988	300.831085	1176.398071	2.421578	353.558929	1009.428772	1.650291	0.000000	0.000000	40.823006	0.000000	0.000000	-9.969646	0.000000	0.000000	-19.445936	0.000000	0.000000	40.823006	0.000000	0.000000	-9.969646	0.000000	0.000000	1.302722	0.000000	0.000000	49.729671	0.000000	0.000000	138.849854	0.000000	0.000000	-16.490591	0.000000	0.000000	4.712992	0.000000	0.000000	10.406973	0.000000	0.000000	15.478757	0.000000	0.000000	-11.046595	0.000000	0.000000	0.219904	0.000000	0.000000	-0.224047	0.000000	0.000000	-0.037653	0.000000	0.000000	6.555232	0.000000	0.000000	-7.527984	0.000000	0.000000	21.808800	0.000000	0.000000	-7.576950	0.000000	0.000000	6.498487	0.000000	0.000000	20.946295	0.000000	0.000000	6.555232	0.000000	0.000000	-7.527984	0.000000	0.000000	42.557457	0.000000	0.000000	-7.576950	0.000000	0.000000	6.498487	0.000000	0.000000	41.694950	309.016388	846.089966	206.780273	521.044678	718.763794	147.093170
334	2.220000	351.943878	1630.231323	-750.004333	261.752869	1698.698242	-730.338501	208.425720	1595.745605	-736.178589	326.962708	1167.515259	-27.535633	349.020691	1114.243774	4.886439	329.617371	1166.396484	28.615271	274.680756	1268.072998	-213.437683	184.090027	1229.958862	-149.922073	215.021103	1171.054199	-238.373322	229.798950	1076.373169	-215.959869	248.289856	1008.472839	-216.553024	286.876617	1026.594727	-196.314026	282.177612	1101.917603	-196.195236	445.793884	737.470703	-199.764114	515.508301	747.698059	-264.395203	548.032593	823.288330	-159.304947	458.240692	771.957458	-141.902542	530.594543	703.285400	-191.311584	580.088623	701.081848	-176.384109	543.590332	726.560852	-148.205109	287.492126	1256.302979	237.934082	241.379776	1159.235474	263.732300	204.896454	1218.008179	173.675552	307.257172	1067.184326	217.246918	317.052460	1006.148682	214.031464	263.143646	989.654419	233.236206	255.140823	1057.216431	234.054581	470.483795	779.317017	154.117966	566.003235	817.424255	154.601990	537.889954	738.805298	253.810196	458.575348	730.328491	195.841156	553.570923	728.240051	128.575577	591.443970	708.111450	153.821518	543.353516	698.354370	178.248825	330.291351	853.556580	228.778625	287.790253	838.625854	184.851151	521.045715	721.639648	122.413857	521.040894	715.869629	171.785477	559.716248	708.094604	150.833740	603.909546	704.389832	122.613739	607.130859	694.802979	149.687225	580.313660	668.743225	172.428619	189.731522	1160.646240	144.961914	157.000412	1036.771851	104.563057	174.894089	1176.571533	77.582245	292.274689	1155.651978	130.713531	267.007782	1187.681763	169.567062	265.595520	1144.210449	156.177460	196.356155	1253.369019	2.588244	151.899994	1097.354614	15.883966	300.820770	1176.387329	2.440709	353.583557	1009.429382	1.606158	0.000000	0.000000	40.673119	0.000000	0.000000	-9.984874	0.000000	0.000000	-19.267830	0.000000	0.000000	40.673119	0.000000	0.000000	-9.984874	0.000000	0.000000	1.478606	0.000000	0.000000	49.728962	0.000000	0.000000	138.843307	0.000000	0.000000	-16.531996	0.000000	0.000000	4.776035	0.000000	0.000000	10.402942	0.000000	0.000000	15.469447	0.000000	0.000000	-11.062795	0.000000	0.000000	0.245217	0.000000	0.000000	-0.212057	0.000000	0.000000	-0.048878	0.000000	0.000000	6.545630	0.000000	0.000000	-7.556544	0.000000	0.000000	21.838024	0.000000	0.000000	-7.605547	0.000000	0.000000	6.488539	0.000000	0.000000	20.973545	0.000000	0.000000	6.545630	0.000000	0.000000	-7.556544	0.000000	0.000000	42.584461	0.000000	0.000000	-7.605547	0.000000	0.000000	6.488539	0.000000	0.000000	41.719982	309.040802	846.091187	206.814880	521.043335	718.754639	147.099670
